<?xml version="1.0" standalone="no"?>
<!DOCTYPE svg PUBLIC "-//W3C//DTD SVG 20010904//EN"
 "http://www.w3.org/TR/2001/REC-SVG-20010904/DTD/svg10.dtd">
<svg version="1.0" xmlns="http://www.w3.org/2000/svg"
 width="58.000000pt" height="57.000000pt" viewBox="0 0 58.000000 57.000000"
 preserveAspectRatio="xMidYMid meet">

<g transform="translate(0.000000,57.000000) scale(0.100000,-0.100000)"
fill="#76ABAE" stroke="none">
<path d="M235 551 c-58 -14 -125 -61 -125 -88 0 -7 -5 -13 -11 -13 -26 0 -74
-87 -84 -151 -17 -114 72 -250 186 -282 94 -27 189 2 270 83 67 67 93 127 93
210 0 52 -6 76 -28 120 -16 30 -38 65 -49 78 -39 42 -165 64 -252 43z m85 -11
c-8 -5 -22 -9 -30 -9 -10 0 -8 3 5 9 27 12 43 12 25 0z m-80 -20 c-20 -13 -33
-13 -25 0 3 6 14 10 23 10 15 0 15 -2 2 -10z m150 -11 c113 -26 180 -137 150
-249 -12 -46 -81 -134 -130 -168 -18 -12 -51 -25 -73 -29 -25 -4 -34 -9 -26
-14 21 -13 -16 -22 -63 -16 -63 8 -128 48 -166 99 -27 39 -34 59 -39 116 -3
43 -1 76 5 88 9 15 11 4 12 -54 0 -88 17 -129 72 -177 49 -41 148 -79 148 -56
0 4 -18 11 -39 14 -84 11 -162 94 -169 180 -9 109 38 198 124 236 92 40 127
46 194 30z m106 -20 c4 -8 1 -8 -14 0 -12 6 -24 16 -28 22 -4 8 -1 8 14 0 12
-6 24 -16 28 -22z"/>
</g>
</svg>
