<?xml version="1.0" standalone="no"?>
<!DOCTYPE svg PUBLIC "-//W3C//DTD SVG 20010904//EN"
 "http://www.w3.org/TR/2001/REC-SVG-20010904/DTD/svg10.dtd">
<svg version="1.0" xmlns="http://www.w3.org/2000/svg"
 width="44.000000pt" height="48.000000pt" viewBox="0 0 44.000000 48.000000"
 preserveAspectRatio="xMidYMid meet">

<g transform="translate(0.000000,48.000000) scale(0.100000,-0.100000)"
fill="#000000" stroke="none">
<path d="M374 458 c-16 -11 -61 -53 -101 -91 l-71 -70 -88 61 c-48 33 -93 58
-101 55 -21 -8 12 -62 79 -125 l60 -56 -70 -83 c-39 -46 -68 -86 -65 -89 2 -3
13 5 23 18 28 34 32 26 9 -18 -12 -23 -18 -44 -15 -48 11 -11 87 35 146 88 58
53 79 60 100 35 7 -9 19 -14 26 -11 7 3 16 1 19 -4 3 -5 23 -23 45 -40 l40
-32 0 35 c0 28 -10 45 -50 88 l-50 54 20 25 c62 76 82 108 95 153 11 37 12 54
4 64 -15 18 -21 17 -55 -9z m26 -36 c0 -7 -81 -81 -135 -124 -49 -38 -24 -3
46 64 66 63 89 79 89 60z m-85 -136 c-9 -13 -24 -27 -33 -31 -10 -4 -5 6 12
24 36 37 42 39 21 7z m-117 -115 c-7 -10 -29 -31 -48 -47 l-35 -29 40 48 c38
45 70 67 43 28z"/>
</g>
</svg>
